<svg width="512" height="512" viewBox="0 0 512 512" xmlns='http://www.w3.org/2000/svg'>
	<rect x="0" y="0" width="100%" height="100%" rx="20" fill="#08f"/>
	<rect x="20" y="40" width="472" height="150" rx="20"  stroke="#000" fill="#f7f700" stroke-width="12" />
	<path d="M270,190 s90,-90 180,0 h0 s-90,90 -180,0 z" stroke="#000" fill="#fff" stroke-width="12" />
	<circle cx="360" cy="190" r="18" stroke="#000" fill="#fff" stroke-width="20" />
	<path d="M120,270 a47,47 0 0,1 90,30 q-10,40 -90,100 q-80,-60 -90,-100 a47,47 0 0,1 90,-30 z" stroke="#000" fill="#f00" stroke-width="12" />
	<path d="M250,280 h80" stroke="#000" stroke-width="12" />
	<path d="M270,350 q90,0 100,-20" fill="none" stroke="#000" stroke-width="12" />
	<path d="M50,440 q20,50 412,-30" fill="none" stroke="#000" stroke-width="12" />
</svg>